<svg width="1253" height="264" viewBox="0 0 1253 264" fill="none" xmlns="http://www.w3.org/2000/svg">
<path d="M0 1.04904e-05H19V264H0V1.04904e-05Z" fill="#FF6F00"/>
<path d="M995.849 1.04904e-05H972L1055 122.464L967 264H989L1079 122.464L995.849 1.04904e-05Z" fill="#FF6F00"/>
<path d="M29.6 0H176.4V44.2H79.6V109.6H169.4V153.6H79.6V264H29.6V0Z" fill="#FF6F00"/>
<path d="M219.481 0H269.481V264H219.481V0Z" fill="#FF6F00"/>
<path d="M367.891 44.2H301.691V0H483.891V44.2H417.891V264H367.891V44.2Z" fill="#FF6F00"/>
<path d="M564.653 46.2L568.053 46.8V264H518.253V0H587.053L705.453 216.8L702.053 217.6V0H751.853V264H682.653L564.653 46.2Z" fill="#FF6F00"/>
<path d="M800.284 0H964.084V44.2H849.884V110.2H962.484V153H849.884V219.8H964.084V264H800.284V0Z" fill="#FF6F00"/>
<path d="M1154.78 122L1252.78 264H1187.78L1121.18 163.4L1055.98 264H995.784L1089.58 122L1004.58 0H1067.98L1123.18 83.4L1177.58 0H1238.38L1154.78 122Z" fill="#FF6F00"/>
</svg>
